
<svg id="Layer_1" data-name="Layer 1" xmlns="http://www.w3.org/2000/svg" viewBox="0 0 364.4 69.24"><defs><style>.cls-1{fill:#fff;}.cls-2{fill:#ffd400;}.cls-3{fill:#ed1b2f;}</style></defs><title>slidemodel-logo-canvas-size</title><path class="cls-1" d="M98.29,74.43c-6.75,0-12.64-1.84-16.31-6.91L88.08,62a12.18,12.18,0,0,0,9.78,4.92c2.86,0,6.05-1,6.05-3.67,0-2.11-1.57-2.81-3.51-3.57-1-.38-5.4-1.57-6.7-1.89-5.35-1.35-9.94-4.21-9.94-10.75,0-7.24,6-12.42,14.59-12.42,6.75,0,11.4,1.89,14.48,6l-6.27,5.24a10.08,10.08,0,0,0-8-3.67c-2.81,0-5.24,1.13-5.24,3.73,0,2.43,2.32,2.86,5.19,3.62.92.27,4.7,1.24,5.67,1.51,5.67,1.57,9.67,4.59,9.67,10.8C113.8,70.27,106.23,74.43,98.29,74.43Z" transform="translate(-14.02 -11.43)"/><path class="cls-1" d="M123.63,74.32c-6,0-8-3.94-8-7.78V35.26h8.91V64.38c0,1.24.43,2.16,2.27,2.16a25,25,0,0,0,2.59-.22V73.4A21.18,21.18,0,0,1,123.63,74.32Z" transform="translate(-14.02 -11.43)"/><path class="cls-1" d="M130.87,41.58V34.94h8.91v6.64Zm0,32.2V45.36h8.91V73.78Z" transform="translate(-14.02 -11.43)"/><path class="cls-1" d="M160.69,73.78V70.43h-.16a10.49,10.49,0,0,1-7.94,4c-6.37,0-10.53-3.94-10.53-10.53V55.3c0-6.54,4.92-10.53,11.13-10.53A9.23,9.23,0,0,1,160.31,48h.16V35.26h8.91V73.78Zm-.22-17.88c0-3.19-2.48-4.59-4.86-4.59-2.21,0-4.59,1.4-4.59,4.92v6.64a4.42,4.42,0,0,0,4.65,4.65,4.53,4.53,0,0,0,4.81-4.86Z" transform="translate(-14.02 -11.43)"/><path class="cls-1" d="M180.67,62.49v.65c0,2.92,3.62,4.43,6.48,4.43,2.59,0,5.73-1.35,7-1.89L196.77,72C194,73.51,191,74.48,185.7,74.48c-6.81,0-14.1-3.46-14.1-11.61V57.19c0-8.43,6.81-12.43,13.61-12.43,6.64,0,13.13,3.62,13.13,10.59v7.13Zm9-6.75c0-3-2.11-4.21-4.38-4.21-2.54,0-4.65,1.4-4.65,4.59v1h9Z" transform="translate(-14.02 -11.43)"/><path class="cls-1" d="M230.21,73.78V49.25H230l-7,19.34h-6.65L209.3,49.31h-.11V73.78h-8.91V35.26h11.94l7.56,20,7.35-20h12V73.78Z" transform="translate(-14.02 -11.43)"/><path class="cls-1" d="M255.28,74.43c-6.81,0-13.67-3.13-13.67-11.4v-6.1c0-8.21,6.81-12.15,13.45-12.15,6.81,0,13.72,3.73,13.72,11.94V62.6C268.78,70.86,261.65,74.43,255.28,74.43Zm4.48-18.31a4.38,4.38,0,0,0-4.59-4.54,4.32,4.32,0,0,0-4.54,4.7v7c0,2.75,1.78,4.43,4.64,4.43a4.19,4.19,0,0,0,4.48-4.48Z" transform="translate(-14.02 -11.43)"/><path class="cls-1" d="M289.53,73.78V70.43h-.16a10.49,10.49,0,0,1-7.94,4c-6.37,0-10.53-3.94-10.53-10.53V55.3c0-6.54,4.92-10.53,11.13-10.53A9.23,9.23,0,0,1,289.15,48h.16V35.26h8.91V73.78Zm-.22-17.88c0-3.19-2.49-4.59-4.86-4.59-2.22,0-4.59,1.4-4.59,4.92v6.64a4.42,4.42,0,0,0,4.65,4.65,4.53,4.53,0,0,0,4.81-4.86Z" transform="translate(-14.02 -11.43)"/><path class="cls-1" d="M309.08,62.49v.65c0,2.92,3.62,4.43,6.48,4.43,2.59,0,5.73-1.35,7-1.89L325.18,72c-2.81,1.51-5.78,2.48-11.07,2.48C307.3,74.48,300,71,300,62.87V57.19c0-8.43,6.81-12.43,13.62-12.43,6.64,0,13.13,3.62,13.13,10.59v7.13Zm9-6.75c0-3-2.11-4.21-4.38-4.21-2.54,0-4.64,1.4-4.64,4.59v1h9Z" transform="translate(-14.02 -11.43)"/><path class="cls-1" d="M336.36,74.32c-6,0-8.05-3.94-8.05-7.78V35.26h8.91V64.38c0,1.24.43,2.16,2.27,2.16a25,25,0,0,0,2.59-.22V73.4A21.17,21.17,0,0,1,336.36,74.32Z" transform="translate(-14.02 -11.43)"/><path class="cls-1" d="M343.36,73.78V71.39h1.7v2.39Z" transform="translate(-14.02 -11.43)"/><path class="cls-1" d="M350.6,74c-2.51,0-4.05-1.43-4.05-4V67.79a3.8,3.8,0,0,1,4-4.09c2.43,0,3.8,1.37,3.8,3.23v.29h-1.43v-.29a2.06,2.06,0,0,0-2.33-2c-1.71,0-2.49,1.08-2.49,2.8V70c0,1.57.71,2.74,2.49,2.74a2,2,0,0,0,2.31-1.94v-.29h1.45v.25C354.36,72.64,353,74,350.6,74Z" transform="translate(-14.02 -11.43)"/><path class="cls-1" d="M359.26,74a3.59,3.59,0,0,1-4-3.94V67.75a3.75,3.75,0,0,1,4-4.05,3.68,3.68,0,0,1,4,4V70A3.75,3.75,0,0,1,359.26,74Zm2.43-6.34c0-1.55-.61-2.7-2.39-2.7s-2.45,1.08-2.45,2.78V70c0,1.55.61,2.72,2.37,2.72s2.45-1.08,2.45-2.78Z" transform="translate(-14.02 -11.43)"/><path class="cls-1" d="M376.91,73.78V67.39c0-1.59-.74-2.39-1.94-2.39a2.84,2.84,0,0,0-2.6,3v5.8h-1.51V67.39c0-1.57-.73-2.39-1.94-2.39a2.85,2.85,0,0,0-2.62,2.94v5.84h-1.51V63.93h1.45v1.59h.06a3.43,3.43,0,0,1,3.08-1.82,2.74,2.74,0,0,1,2.74,1.82h.1a3.6,3.6,0,0,1,3.17-1.82,2.92,2.92,0,0,1,3,3.11v7Z" transform="translate(-14.02 -11.43)"/><path class="cls-2" d="M32,66.4c-2.51-.34-5.89-3.71-7-7.41a62.39,62.39,0,0,1,.33-36.69c-.53.06-1.07.12-1.6.19-2.52.38-5.93,4-7.08,7.87a67.89,67.89,0,0,0,1.84,42.95c1.48,3.81,5.19,7.1,7.73,7.27,13.32.74,25.51-3.12,37.24-8.83,2.22-1.15,4.38-4.54,4.69-7.34.09-1,.17-2.06.24-3.09C56.66,65.47,44.66,68,32,66.4Z" transform="translate(-14.02 -11.43)"/><path class="cls-3" d="M76.41,27.21a10.22,10.22,0,0,0-4.78-6.89c-11.78-5.51-24-9.37-37.24-8.83-2.53.12-6.19,3.21-7.63,6.81-.52,1.32-1,2.66-1.41,4C38,20.88,49.9,23.63,61.59,28.11c2.31,1,4.75,4.13,5.3,6.89a102.85,102.85,0,0,1,1.5,26.32l1.5-.53a10.2,10.2,0,0,0,5.36-6.44A82.48,82.48,0,0,0,76.41,27.21Z" transform="translate(-14.02 -11.43)"/></svg>
